<svg width="32" height="32" viewBox="0 0 32 32" fill="none" xmlns="http://www.w3.org/2000/svg">
<path d="M12 2.00001H6.82901C6.43475 1.99887 6.04418 2.07597 5.67992 2.22686C5.31567 2.37774 4.98498 2.59941 4.70701 2.87901L2.87901 4.70701C2.59941 4.98498 2.37774 5.31567 2.22686 5.67992C2.07597 6.04418 1.99887 6.43475 2.00001 6.82901V15C2.00001 15.7957 2.31608 16.5587 2.87869 17.1213C3.4413 17.6839 4.20436 18 5.00001 18H12C12.7957 18 13.5587 17.6839 14.1213 17.1213C14.6839 16.5587 15 15.7957 15 15V5.00001C15 4.20436 14.6839 3.4413 14.1213 2.87869C13.5587 2.31608 12.7957 2.00001 12 2.00001ZM13 15C13 15.2652 12.8947 15.5196 12.7071 15.7071C12.5196 15.8947 12.2652 16 12 16H5.00001C4.7348 16 4.48044 15.8947 4.29291 15.7071C4.10537 15.5196 4.00001 15.2652 4.00001 15V6.82901C3.99958 6.69748 4.02525 6.56718 4.07555 6.44565C4.12585 6.32411 4.19976 6.21377 4.29301 6.12101L6.12101 4.29301C6.21377 4.19976 6.32411 4.12585 6.44565 4.07555C6.56718 4.02525 6.69748 3.99958 6.82901 4.00001H12C12.2652 4.00001 12.5196 4.10537 12.7071 4.29291C12.8947 4.48044 13 4.7348 13 5.00001V15ZM11 13C11 13.2652 10.8947 13.5196 10.7071 13.7071C10.5196 13.8947 10.2652 14 10 14H7.00001C6.7348 14 6.48044 13.8947 6.29291 13.7071C6.10537 13.5196 6.00001 13.2652 6.00001 13C6.00001 12.7348 6.10537 12.4804 6.29291 12.2929C6.48044 12.1054 6.7348 12 7.00001 12H10C10.2652 12 10.5196 12.1054 10.7071 12.2929C10.8947 12.4804 11 12.7348 11 13ZM11 9.00001C11 9.26523 10.8947 9.51958 10.7071 9.70712C10.5196 9.89466 10.2652 10 10 10H7.00001C6.7348 10 6.48044 9.89466 6.29291 9.70712C6.10537 9.51958 6.00001 9.26523 6.00001 9.00001C6.00001 8.7348 6.10537 8.48044 6.29291 8.29291C6.48044 8.10537 6.7348 8.00001 7.00001 8.00001H10C10.2652 8.00001 10.5196 8.10537 10.7071 8.29291C10.8947 8.48044 11 8.7348 11 9.00001ZM27 14H21.829C21.4347 13.9989 21.0442 14.076 20.6799 14.2269C20.3157 14.3777 19.985 14.5994 19.707 14.879L17.879 16.707C17.5995 16.9849 17.3779 17.3154 17.227 17.6795C17.0762 18.0435 16.999 18.4339 17 18.828V27C17 27.7957 17.3161 28.5587 17.8787 29.1213C18.4413 29.6839 19.2044 30 20 30H27C27.7957 30 28.5587 29.6839 29.1213 29.1213C29.6839 28.5587 30 27.7957 30 27V17C30 16.2044 29.6839 15.4413 29.1213 14.8787C28.5587 14.3161 27.7957 14 27 14ZM28 27C28 27.2652 27.8947 27.5196 27.7071 27.7071C27.5196 27.8947 27.2652 28 27 28H20C19.7348 28 19.4804 27.8947 19.2929 27.7071C19.1054 27.5196 19 27.2652 19 27V18.828C19.001 18.563 19.1063 18.3091 19.293 18.121L21.121 16.293C21.2138 16.1998 21.3241 16.1258 21.4456 16.0756C21.5672 16.0253 21.6975 15.9996 21.829 16H27C27.2652 16 27.5196 16.1054 27.7071 16.2929C27.8947 16.4804 28 16.7348 28 17V27ZM26 25C26 25.2652 25.8947 25.5196 25.7071 25.7071C25.5196 25.8947 25.2652 26 25 26H22C21.7348 26 21.4804 25.8947 21.2929 25.7071C21.1054 25.5196 21 25.2652 21 25C21 24.7348 21.1054 24.4804 21.2929 24.2929C21.4804 24.1054 21.7348 24 22 24H25C25.2652 24 25.5196 24.1054 25.7071 24.2929C25.8947 24.4804 26 24.7348 26 25ZM26 21C26 21.2652 25.8947 21.5196 25.7071 21.7071C25.5196 21.8947 25.2652 22 25 22H22C21.7348 22 21.4804 21.8947 21.2929 21.7071C21.1054 21.5196 21 21.2652 21 21C21 20.7348 21.1054 20.4804 21.2929 20.2929C21.4804 20.1054 21.7348 20 22 20H25C25.2652 20 25.5196 20.1054 25.7071 20.2929C25.8947 20.4804 26 20.7348 26 21ZM17.293 7.70701C17.1055 7.51948 17.0002 7.26518 17.0002 7.00001C17.0002 6.73485 17.1055 6.48054 17.293 6.29301L19.293 4.29301C19.4816 4.11085 19.7342 4.01006 19.9964 4.01234C20.2586 4.01462 20.5094 4.11979 20.6948 4.30519C20.8802 4.4906 20.9854 4.74141 20.9877 5.00361C20.99 5.26581 20.8892 5.51841 20.707 5.70701L20.414 6.00001H21C22.3256 6.0016 23.5965 6.52889 24.5338 7.46623C25.4711 8.40357 25.9984 9.67442 26 11C26 11.2652 25.8947 11.5196 25.7071 11.7071C25.5196 11.8947 25.2652 12 25 12C24.7348 12 24.4804 11.8947 24.2929 11.7071C24.1054 11.5196 24 11.2652 24 11C24 10.2044 23.6839 9.4413 23.1213 8.87869C22.5587 8.31608 21.7957 8.00001 21 8.00001H20.414L20.707 8.29301C20.8025 8.38526 20.8787 8.4956 20.9311 8.61761C20.9835 8.73961 21.0111 8.87083 21.0123 9.00361C21.0134 9.13639 20.9881 9.26807 20.9378 9.39097C20.8876 9.51386 20.8133 9.62551 20.7194 9.71941C20.6255 9.8133 20.5139 9.88755 20.391 9.93783C20.2681 9.98811 20.1364 10.0134 20.0036 10.0123C19.8708 10.0111 19.7396 9.98352 19.6176 9.93111C19.4956 9.87871 19.3853 9.80252 19.293 9.70701L17.293 7.70701ZM14.707 24.293C14.8945 24.4805 14.9998 24.7348 14.9998 25C14.9998 25.2652 14.8945 25.5195 14.707 25.707L12.707 27.707C12.5184 27.8892 12.2658 27.99 12.0036 27.9877C11.7414 27.9854 11.4906 27.8802 11.3052 27.6948C11.1198 27.5094 11.0146 27.2586 11.0123 26.9964C11.0101 26.7342 11.1109 26.4816 11.293 26.293L11.586 26H11C9.67442 25.9984 8.40357 25.4711 7.46623 24.5338C6.52889 23.5965 6.0016 22.3256 6.00001 21C6.00001 20.7348 6.10537 20.4804 6.29291 20.2929C6.48044 20.1054 6.7348 20 7.00001 20C7.26523 20 7.51958 20.1054 7.70712 20.2929C7.89466 20.4804 8.00001 20.7348 8.00001 21C8.00001 21.7957 8.31608 22.5587 8.87869 23.1213C9.4413 23.6839 10.2044 24 11 24H11.586L11.293 23.707C11.1109 23.5184 11.0101 23.2658 11.0123 23.0036C11.0146 22.7414 11.1198 22.4906 11.3052 22.3052C11.4906 22.1198 11.7414 22.0146 12.0036 22.0123C12.2658 22.0101 12.5184 22.1109 12.707 22.293L14.707 24.293Z" fill="url(#paint0_linear_197_267)"/>
<defs>
<linearGradient id="paint0_linear_197_267" x1="3.79301" y1="3.79301" x2="29.12" y2="29.12" gradientUnits="userSpaceOnUse">
<stop stop-color="#FDC830"/>
<stop offset="1" stop-color="#F37335"/>
</linearGradient>
</defs>
</svg>
